<?xml version="1.0" encoding="iso-8859-1"?>
<!-- Generator: Adobe Illustrator 19.0.0, SVG Export Plug-In . SVG Version: 6.00 Build 0)  -->
<svg version="1.1" id="Capa_1" xmlns="http://www.w3.org/2000/svg" xmlns:xlink="http://www.w3.org/1999/xlink" x="0px" y="0px"
	 viewBox="0 0 512.001 512.001" style="enable-background:new 0 0 512.001 512.001;" xml:space="preserve">
<g>
	<g>
		<path fill="#111" d="M243.865,364.349l-10.982,39.855c-29.157-9.289-55.791-25.501-77.688-47.398c-21.897-21.897-38.109-48.53-47.398-77.688
			l39.855-10.982v-121.14H0v73.826c0,77.777,30.288,150.898,85.284,205.895C140.28,481.713,213.402,512,291.179,512h73.826V364.349
			H243.865z"/>
	</g>
</g>
<g>
	<g>
		<path fill="#111" d="M437.019,74.982C388.667,26.629,324.38,0.001,256,0.001S123.333,26.629,74.981,74.982l21.214,21.213
			C138.88,53.51,195.634,30.002,256,30.002c60.367,0,117.119,23.508,159.805,66.193s66.193,99.439,66.193,159.805
			c0,60.366-23.508,117.119-66.193,159.805l21.214,21.214c48.352-48.352,74.982-112.639,74.982-181.019
			S485.372,123.333,437.019,74.982z"/>
	</g>
</g>
<g>
	<g>
		<polygon fill="#111" points="232.352,257.13 232.352,227.08 292.403,227.08 292.403,137.028 202.339,137.028 202.339,167.029 262.401,167.029
			262.401,197.079 202.35,197.079 202.35,287.131 292.415,287.131 292.415,257.13 		"/>
	</g>
</g>
<g>
	<g>
		<polygon fill="#111" points="382.503,137.016 382.503,197.079 352.454,197.079 352.454,137.016 322.452,137.016 322.452,227.08
			382.503,227.08 382.503,287.143 412.504,287.143 412.504,137.016 		"/>
	</g>
</g>

</svg>
