<?xml version="1.0" encoding="utf-8"?>
<!-- Generator: Adobe Illustrator 16.0.0, SVG Export Plug-In . SVG Version: 6.00 Build 0)  -->
<!DOCTYPE svg PUBLIC "-//W3C//DTD SVG 1.1//EN" "http://www.w3.org/Graphics/SVG/1.1/DTD/svg11.dtd">
<svg version="1.1" id="Capa_1" xmlns="http://www.w3.org/2000/svg" xmlns:xlink="http://www.w3.org/1999/xlink" x="0px" y="0px"
	 width="466.5px" height="162.61px" viewBox="0 0 466.5 162.61" enable-background="new 0 0 466.5 162.61" xml:space="preserve">
<g>
	<g>
		<g>
			<g>
				<linearGradient id="SVGID_1_" gradientUnits="userSpaceOnUse" x1="223.7854" y1="296.3516" x2="36.7854" y2="105.3515">
					<stop  offset="0" style="stop-color:#AA7B00"/>
					<stop  offset="0.2759" style="stop-color:#FFE73B"/>
					<stop  offset="0.5911" style="stop-color:#FFFF9B"/>
					<stop  offset="1" style="stop-color:#AA7B00"/>
				</linearGradient>
				<path fill="url(#SVGID_1_)" d="M57.793,115.296l-2.513,9.118c-6.67-2.125-12.764-5.834-17.773-10.843
					c-5.01-5.01-8.719-11.103-10.844-17.774l9.118-2.513V65.57H2v16.89c0,17.794,6.93,34.523,19.512,47.105
					c12.583,12.582,29.311,19.511,47.105,19.511h16.891v-33.78H57.793z"/>
			</g>
		</g>
		<g>
			<g>
				<linearGradient id="SVGID_2_" gradientUnits="userSpaceOnUse" x1="264.0525" y1="256.9282" x2="77.0525" y2="65.9282">
					<stop  offset="0" style="stop-color:#AA7B00"/>
					<stop  offset="0.2759" style="stop-color:#FFE73B"/>
					<stop  offset="0.5911" style="stop-color:#FFFF9B"/>
					<stop  offset="1" style="stop-color:#AA7B00"/>
				</linearGradient>
				<path fill="url(#SVGID_2_)" d="M101.983,49.095C90.921,38.032,76.213,31.94,60.569,31.94c-15.644,0-30.352,6.092-41.414,17.155
					l4.853,4.853c9.766-9.766,22.75-15.144,36.561-15.144c13.811,0,26.795,5.378,36.561,15.144
					c9.767,9.765,15.145,22.75,15.145,36.561s-5.378,26.795-15.145,36.561l4.854,4.854c11.062-11.062,17.155-25.77,17.155-41.414
					S113.046,60.156,101.983,49.095z"/>
			</g>
		</g>
		<g>
			<g>
				<linearGradient id="SVGID_3_" gradientUnits="userSpaceOnUse" x1="247.365" y1="273.2666" x2="60.365" y2="82.2666">
					<stop  offset="0" style="stop-color:#AA7B00"/>
					<stop  offset="0.2759" style="stop-color:#FFE73B"/>
					<stop  offset="0.5911" style="stop-color:#FFFF9B"/>
					<stop  offset="1" style="stop-color:#AA7B00"/>
				</linearGradient>
				<polygon fill="url(#SVGID_3_)" points="55.158,90.767 55.158,83.892 68.897,83.892 68.897,63.289 48.292,63.289 48.292,70.153 
					62.033,70.153 62.033,77.028 48.295,77.028 48.295,97.63 68.9,97.63 68.9,90.767 				"/>
			</g>
		</g>
		<g>
			<g>
				<linearGradient id="SVGID_4_" gradientUnits="userSpaceOnUse" x1="264.8284" y1="256.1685" x2="77.8284" y2="65.1684">
					<stop  offset="0" style="stop-color:#AA7B00"/>
					<stop  offset="0.2759" style="stop-color:#FFE73B"/>
					<stop  offset="0.5911" style="stop-color:#FFFF9B"/>
					<stop  offset="1" style="stop-color:#AA7B00"/>
				</linearGradient>
				<polygon fill="url(#SVGID_4_)" points="89.511,63.287 89.511,77.028 82.636,77.028 82.636,63.287 75.772,63.287 75.772,83.892 
					89.511,83.892 89.511,97.633 96.374,97.633 96.374,63.287 				"/>
			</g>
		</g>
	</g>
	<g>
		<linearGradient id="SVGID_5_" gradientUnits="userSpaceOnUse" x1="316.8811" y1="205.2061" x2="129.8811" y2="14.206">
			<stop  offset="0" style="stop-color:#AA7B00"/>
			<stop  offset="0.2759" style="stop-color:#FFE73B"/>
			<stop  offset="0.5911" style="stop-color:#FFFF9B"/>
			<stop  offset="1" style="stop-color:#AA7B00"/>
		</linearGradient>
		<path fill="url(#SVGID_5_)" d="M145.007,107.965L167.267,3.236h28.543L178.75,83.5h35.482l-5.2,24.466H145.007z"/>
		<linearGradient id="SVGID_6_" gradientUnits="userSpaceOnUse" x1="357.1311" y1="165.7988" x2="170.1311" y2="-25.2012">
			<stop  offset="0" style="stop-color:#AA7B00"/>
			<stop  offset="0.2759" style="stop-color:#FFE73B"/>
			<stop  offset="0.5911" style="stop-color:#FFFF9B"/>
			<stop  offset="1" style="stop-color:#AA7B00"/>
		</linearGradient>
		<path fill="url(#SVGID_6_)" d="M223.696,107.965L245.957,3.236h28.829l-22.261,104.729H223.696z"/>
		<linearGradient id="SVGID_7_" gradientUnits="userSpaceOnUse" x1="408.3225" y1="115.6802" x2="221.3225" y2="-75.3199">
			<stop  offset="0" style="stop-color:#AA7B00"/>
			<stop  offset="0.2759" style="stop-color:#FFE73B"/>
			<stop  offset="0.5911" style="stop-color:#FFFF9B"/>
			<stop  offset="1" style="stop-color:#AA7B00"/>
		</linearGradient>
		<path fill="url(#SVGID_7_)" d="M305.535,107.965L283.872,3.236h30.332l8.508,58.588c0.059,0.621,0.135,2.11,0.23,4.471
			c0.094,2.361,0.191,5.544,0.293,9.55c1.441-3.194,2.771-6.081,3.986-8.656c1.215-2.575,2.096-4.363,2.643-5.365l33.271-58.588
			h30.332l-66.186,104.729H305.535z"/>
		<linearGradient id="SVGID_8_" gradientUnits="userSpaceOnUse" x1="445.8147" y1="78.9722" x2="258.8147" y2="-112.0279">
			<stop  offset="0" style="stop-color:#AA7B00"/>
			<stop  offset="0.2759" style="stop-color:#FFE73B"/>
			<stop  offset="0.5911" style="stop-color:#FFFF9B"/>
			<stop  offset="1" style="stop-color:#AA7B00"/>
		</linearGradient>
		<path fill="url(#SVGID_8_)" d="M379.719,107.965l22.26-104.729h64.168l-4.881,22.963h-36.34l-3.863,18.17h34.268l-4.775,22.462
			h-34.266l-3.756,17.669h36.34l-4.986,23.464H379.719z"/>
	</g>
	<g>
		<linearGradient id="SVGID_9_" gradientUnits="userSpaceOnUse" x1="266.2927" y1="254.7349" x2="79.2927" y2="63.7348">
			<stop  offset="0" style="stop-color:#AA7B00"/>
			<stop  offset="0.2759" style="stop-color:#FFE73B"/>
			<stop  offset="0.5911" style="stop-color:#FFFF9B"/>
			<stop  offset="1" style="stop-color:#AA7B00"/>
		</linearGradient>
		<path fill="url(#SVGID_9_)" d="M138.539,147.077c1.478,2.212,3.048,3.864,4.708,4.959s3.432,1.642,5.316,1.642
			c1.751,0,3.291-0.47,4.619-1.412c1.327-0.941,2.144-2.135,2.451-3.58c0.34-1.598,0.114-2.829-0.675-3.694
			c-0.791-0.865-2.808-1.757-6.049-2.676c-4.437-1.27-7.413-2.923-8.928-4.958c-1.517-2.036-1.897-4.828-1.143-8.374
			c0.978-4.598,3.313-8.346,7.004-11.247c3.693-2.901,7.99-4.351,12.895-4.351c2.649,0,5.086,0.355,7.311,1.067
			c2.224,0.711,4.244,1.79,6.061,3.235l-6.108,9.425c-1.219-1.27-2.543-2.228-3.97-2.874c-1.428-0.646-2.909-0.969-4.44-0.969
			c-1.577,0-2.938,0.377-4.084,1.133c-1.146,0.755-1.844,1.724-2.095,2.906c-0.256,1.205-0.029,2.167,0.683,2.89
			c0.712,0.722,2.234,1.412,4.568,2.068l0.557,0.164c5.034,1.445,8.21,3.033,9.529,4.762c0.887,1.182,1.451,2.6,1.69,4.253
			c0.241,1.653,0.146,3.486-0.282,5.5c-1.084,5.102-3.63,9.201-7.639,12.299c-4.008,3.098-8.803,4.646-14.385,4.646
			c-3.35,0-6.277-0.569-8.782-1.708c-2.506-1.138-4.771-2.922-6.793-5.353L138.539,147.077z"/>
		<linearGradient id="SVGID_10_" gradientUnits="userSpaceOnUse" x1="292.0735" y1="229.4941" x2="105.0735" y2="38.4941">
			<stop  offset="0" style="stop-color:#AA7B00"/>
			<stop  offset="0.2759" style="stop-color:#FFE73B"/>
			<stop  offset="0.5911" style="stop-color:#FFFF9B"/>
			<stop  offset="1" style="stop-color:#AA7B00"/>
		</linearGradient>
		<path fill="url(#SVGID_10_)" d="M182.103,114.534h13.07l-4.97,23.381c-0.73,3.438-1.168,5.906-1.312,7.406
			c-0.144,1.5-0.115,2.753,0.088,3.76c0.242,1.226,0.919,2.162,2.03,2.807c1.11,0.646,2.563,0.969,4.359,0.969
			c1.795,0,3.379-0.322,4.753-0.969c1.374-0.645,2.455-1.582,3.241-2.807c0.63-1.007,1.191-2.261,1.686-3.76
			c0.494-1.5,1.106-3.968,1.837-7.406l0.698-3.283l4.271-20.098h13.037l-5.402,25.417c-1.121,5.276-2.267,9.168-3.434,11.674
			c-1.169,2.507-2.695,4.647-4.584,6.42c-2.056,1.949-4.621,3.41-7.696,4.384c-3.075,0.974-6.659,1.461-10.753,1.461
			c-4.116,0-7.499-0.487-10.148-1.461c-2.65-0.974-4.6-2.436-5.849-4.384c-1.112-1.773-1.725-3.913-1.837-6.42
			c-0.113-2.506,0.391-6.398,1.513-11.674l1.061-4.991L182.103,114.534z"/>
		<linearGradient id="SVGID_11_" gradientUnits="userSpaceOnUse" x1="312.4241" y1="209.5698" x2="125.4241" y2="18.5698">
			<stop  offset="0" style="stop-color:#AA7B00"/>
			<stop  offset="0.2759" style="stop-color:#FFE73B"/>
			<stop  offset="0.5911" style="stop-color:#FFFF9B"/>
			<stop  offset="1" style="stop-color:#AA7B00"/>
		</linearGradient>
		<path fill="url(#SVGID_11_)" d="M236.905,162.61h-12.281l10.219-48.076h13.693c5.363,0,9.073,0.263,11.13,0.788
			c2.055,0.525,3.703,1.423,4.943,2.693c1.462,1.467,2.424,3.3,2.887,5.5c0.463,2.201,0.408,4.647-0.164,7.339
			c-0.61,2.868-1.606,5.392-2.988,7.569c-1.383,2.179-3.121,3.969-5.213,5.369c-1.581,1.051-3.34,1.806-5.276,2.266
			c-1.938,0.46-4.931,0.689-8.98,0.689h-2.233h-2.364L236.905,162.61z M242.524,136.174h2.496c3.152,0,5.444-0.432,6.876-1.297
			c1.432-0.865,2.369-2.337,2.811-4.417c0.429-2.014,0.12-3.448-0.925-4.302c-1.044-0.854-3.121-1.281-6.229-1.281h-2.627
			L242.524,136.174z"/>
		<linearGradient id="SVGID_12_" gradientUnits="userSpaceOnUse" x1="334.1868" y1="188.2627" x2="147.1868" y2="-2.7373">
			<stop  offset="0" style="stop-color:#AA7B00"/>
			<stop  offset="0.2759" style="stop-color:#FFE73B"/>
			<stop  offset="0.5911" style="stop-color:#FFFF9B"/>
			<stop  offset="1" style="stop-color:#AA7B00"/>
		</linearGradient>
		<path fill="url(#SVGID_12_)" d="M279.529,162.61h-12.281l10.219-48.076h13.693c5.363,0,9.073,0.263,11.129,0.788
			s3.704,1.423,4.944,2.693c1.462,1.467,2.424,3.3,2.887,5.5c0.463,2.201,0.408,4.647-0.164,7.339
			c-0.61,2.868-1.606,5.392-2.988,7.569c-1.382,2.179-3.121,3.969-5.213,5.369c-1.58,1.051-3.338,1.806-5.275,2.266
			s-4.931,0.689-8.98,0.689h-2.233H282.9L279.529,162.61z M285.148,136.174h2.496c3.152,0,5.444-0.432,6.876-1.297
			c1.432-0.865,2.369-2.337,2.812-4.417c0.428-2.014,0.119-3.448-0.926-4.302c-1.044-0.854-3.121-1.281-6.229-1.281h-2.627
			L285.148,136.174z"/>
		<linearGradient id="SVGID_13_" gradientUnits="userSpaceOnUse" x1="361.2629" y1="161.7534" x2="174.263" y2="-29.2466">
			<stop  offset="0" style="stop-color:#AA7B00"/>
			<stop  offset="0.2759" style="stop-color:#FFE73B"/>
			<stop  offset="0.5911" style="stop-color:#FFFF9B"/>
			<stop  offset="1" style="stop-color:#AA7B00"/>
		</linearGradient>
		<path fill="url(#SVGID_13_)" d="M364.318,138.67c-0.735,3.459-2.061,6.699-3.972,9.72c-1.912,3.021-4.336,5.725-7.272,8.111
			c-2.955,2.365-6.146,4.187-9.57,5.468c-3.424,1.281-6.834,1.921-10.227,1.921c-3.438,0-6.591-0.64-9.46-1.921
			s-5.246-3.103-7.13-5.468c-1.966-2.386-3.266-5.101-3.9-8.144c-0.634-3.043-0.588-6.272,0.139-9.688
			c0.73-3.437,2.059-6.671,3.983-9.704c1.926-3.032,4.378-5.741,7.359-8.127c2.888-2.364,6.04-4.187,9.454-5.468
			c3.412-1.281,6.839-1.921,10.276-1.921c3.415,0,6.567,0.64,9.46,1.921c2.891,1.281,5.288,3.104,7.195,5.468
			c1.904,2.365,3.174,5.068,3.809,8.111C365.096,131.993,365.048,135.233,364.318,138.67z M335.636,152.791
			c3.634,0,6.923-1.335,9.865-4.006c2.942-2.671,4.848-6.042,5.713-10.114c0.856-4.028,0.367-7.389-1.469-10.082
			c-1.837-2.693-4.539-4.039-8.106-4.039c-3.635,0-6.925,1.341-9.87,4.022c-2.945,2.682-4.848,6.048-5.709,10.098
			c-0.874,4.116-0.422,7.499,1.357,10.147C329.196,151.466,331.936,152.791,335.636,152.791z"/>
		<linearGradient id="SVGID_14_" gradientUnits="userSpaceOnUse" x1="385.3948" y1="138.127" x2="198.3948" y2="-52.8731">
			<stop  offset="0" style="stop-color:#AA7B00"/>
			<stop  offset="0.2759" style="stop-color:#FFE73B"/>
			<stop  offset="0.5911" style="stop-color:#FFFF9B"/>
			<stop  offset="1" style="stop-color:#AA7B00"/>
		</linearGradient>
		<path fill="url(#SVGID_14_)" d="M367.439,162.61l10.219-48.076h13.693c5.363,0,9.049,0.247,11.058,0.739
			c2.008,0.493,3.654,1.319,4.941,2.479c1.449,1.313,2.423,2.988,2.921,5.024s0.485,4.28-0.035,6.732
			c-0.791,3.722-2.349,6.748-4.672,9.08c-2.324,2.332-5.318,3.88-8.984,4.646l8.984,19.375h-14.81l-7.034-18.817l-4,18.817H367.439z
			 M385.109,137.258h2.431c2.823,0,4.989-0.481,6.496-1.444c1.508-0.963,2.48-2.474,2.918-4.532c0.512-2.408,0.269-4.122-0.73-5.14
			c-0.998-1.018-2.932-1.527-5.8-1.527h-2.627L385.109,137.258z"/>
		<linearGradient id="SVGID_15_" gradientUnits="userSpaceOnUse" x1="410.261" y1="113.7822" x2="223.261" y2="-77.2178">
			<stop  offset="0" style="stop-color:#AA7B00"/>
			<stop  offset="0.2759" style="stop-color:#FFE73B"/>
			<stop  offset="0.5911" style="stop-color:#FFFF9B"/>
			<stop  offset="1" style="stop-color:#AA7B00"/>
		</linearGradient>
		<path fill="url(#SVGID_15_)" d="M417.485,162.61l7.804-36.714h-10.771l2.415-11.362h34.646l-2.415,11.362h-10.771l-7.804,36.714
			H417.485z"/>
	</g>
</g>
</svg>
